<mxfile host="Electron" agent="Mozilla/5.0 (Macintosh; Intel Mac OS X 10_15_7) AppleWebKit/537.36 (KHTML, like Gecko) draw.io/26.2.2 Chrome/134.0.6998.178 Electron/35.1.2 Safari/537.36" version="26.2.2">
  <diagram id="C5RBs43oDa-KdzZeNtuy" name="Page-1">
    <mxGraphModel dx="2715" dy="1004" grid="1" gridSize="10" guides="1" tooltips="1" connect="1" arrows="1" fold="1" page="1" pageScale="1" pageWidth="827" pageHeight="1169" background="#242424" math="0" shadow="0">
      <root>
        <mxCell id="WIyWlLk6GJQsqaUBKTNV-0" />
        <mxCell id="WIyWlLk6GJQsqaUBKTNV-1" parent="WIyWlLk6GJQsqaUBKTNV-0" />
        <mxCell id="UHBoEESBEvqK0pgLRjjo-17" style="edgeStyle=orthogonalEdgeStyle;rounded=0;orthogonalLoop=1;jettySize=auto;html=1;entryX=0;entryY=0.5;entryDx=0;entryDy=0;sketch=1;curveFitting=1;jiggle=2;strokeColor=#FFFFFF;" edge="1" parent="WIyWlLk6GJQsqaUBKTNV-1" source="UHBoEESBEvqK0pgLRjjo-0" target="UHBoEESBEvqK0pgLRjjo-4">
          <mxGeometry relative="1" as="geometry" />
        </mxCell>
        <mxCell id="UHBoEESBEvqK0pgLRjjo-0" value="&lt;font style=&quot;font-size: 18px; color: rgb(255, 255, 0);&quot;&gt;Start rcForge script load&lt;/font&gt;" style="ellipse;whiteSpace=wrap;html=1;fontStyle=1;fillColor=#d5e8d4;strokeColor=#FFFFFF;sketch=1;curveFitting=1;jiggle=2;" vertex="1" parent="WIyWlLk6GJQsqaUBKTNV-1">
          <mxGeometry x="10" y="80" width="120" height="80" as="geometry" />
        </mxCell>
        <mxCell id="UHBoEESBEvqK0pgLRjjo-18" style="edgeStyle=orthogonalEdgeStyle;rounded=0;orthogonalLoop=1;jettySize=auto;html=1;entryX=0;entryY=0.5;entryDx=0;entryDy=0;sketch=1;curveFitting=1;jiggle=2;strokeColor=#FFFFFF;" edge="1" parent="WIyWlLk6GJQsqaUBKTNV-1" source="UHBoEESBEvqK0pgLRjjo-4" target="UHBoEESBEvqK0pgLRjjo-7">
          <mxGeometry relative="1" as="geometry" />
        </mxCell>
        <mxCell id="UHBoEESBEvqK0pgLRjjo-4" value="&lt;font style=&quot;font-size: 18px; color: rgb(51, 255, 51);&quot;&gt;050-global-common-path&lt;/font&gt;" style="rounded=0;whiteSpace=wrap;html=1;fontStyle=1;fillColor=#dae8fc;strokeColor=#FFFFFF;sketch=1;curveFitting=1;jiggle=2;" vertex="1" parent="WIyWlLk6GJQsqaUBKTNV-1">
          <mxGeometry x="220" y="80" width="140" height="80" as="geometry" />
        </mxCell>
        <mxCell id="UHBoEESBEvqK0pgLRjjo-6" value="&lt;font style=&quot;font-size: 18px; color: rgb(255, 255, 0);&quot;&gt;&lt;b&gt;End rcForge &lt;br&gt;script load&lt;/b&gt;&lt;/font&gt;" style="ellipse;whiteSpace=wrap;html=1;fillColor=#f8cecc;strokeColor=#FFFFFF;sketch=1;curveFitting=1;jiggle=2;" vertex="1" parent="WIyWlLk6GJQsqaUBKTNV-1">
          <mxGeometry x="697" y="350" width="120" height="80" as="geometry" />
        </mxCell>
        <mxCell id="UHBoEESBEvqK0pgLRjjo-19" style="edgeStyle=orthogonalEdgeStyle;rounded=0;orthogonalLoop=1;jettySize=auto;html=1;sketch=1;curveFitting=1;jiggle=2;strokeColor=#FFFFFF;" edge="1" parent="WIyWlLk6GJQsqaUBKTNV-1" source="UHBoEESBEvqK0pgLRjjo-7" target="UHBoEESBEvqK0pgLRjjo-8">
          <mxGeometry relative="1" as="geometry" />
        </mxCell>
        <mxCell id="UHBoEESBEvqK0pgLRjjo-20" style="edgeStyle=orthogonalEdgeStyle;rounded=0;orthogonalLoop=1;jettySize=auto;html=1;sketch=1;curveFitting=1;jiggle=2;strokeColor=#FFFFFF;" edge="1" parent="WIyWlLk6GJQsqaUBKTNV-1" source="UHBoEESBEvqK0pgLRjjo-7" target="UHBoEESBEvqK0pgLRjjo-10">
          <mxGeometry relative="1" as="geometry" />
        </mxCell>
        <mxCell id="UHBoEESBEvqK0pgLRjjo-7" value="&lt;font style=&quot;font-size: 18px; color: rgb(204, 204, 255);&quot;&gt;200-global-common-config&lt;/font&gt;" style="rounded=0;whiteSpace=wrap;html=1;fontStyle=1;fillColor=#dae8fc;strokeColor=#FFFFFF;sketch=1;curveFitting=1;jiggle=2;" vertex="1" parent="WIyWlLk6GJQsqaUBKTNV-1">
          <mxGeometry x="450" y="80" width="140" height="80" as="geometry" />
        </mxCell>
        <mxCell id="UHBoEESBEvqK0pgLRjjo-21" style="edgeStyle=orthogonalEdgeStyle;rounded=0;orthogonalLoop=1;jettySize=auto;html=1;entryX=0;entryY=0.5;entryDx=0;entryDy=0;exitX=1;exitY=0.5;exitDx=0;exitDy=0;sketch=1;curveFitting=1;jiggle=2;strokeColor=#FFFFFF;" edge="1" parent="WIyWlLk6GJQsqaUBKTNV-1" source="UHBoEESBEvqK0pgLRjjo-8" target="UHBoEESBEvqK0pgLRjjo-11">
          <mxGeometry relative="1" as="geometry">
            <Array as="points">
              <mxPoint x="860" y="50" />
              <mxPoint x="860" y="260" />
              <mxPoint x="-10" y="260" />
              <mxPoint x="-10" y="390" />
            </Array>
          </mxGeometry>
        </mxCell>
        <mxCell id="UHBoEESBEvqK0pgLRjjo-8" value="&lt;font style=&quot;font-size: 18px; color: rgb(255, 181, 112);&quot;&gt;210-global-bash-config&lt;/font&gt;" style="rounded=0;whiteSpace=wrap;html=1;fontStyle=1;fillColor=#dae8fc;strokeColor=#FFFFFF;sketch=1;curveFitting=1;jiggle=2;" vertex="1" parent="WIyWlLk6GJQsqaUBKTNV-1">
          <mxGeometry x="687" y="10" width="140" height="80" as="geometry" />
        </mxCell>
        <mxCell id="UHBoEESBEvqK0pgLRjjo-22" style="edgeStyle=orthogonalEdgeStyle;rounded=0;orthogonalLoop=1;jettySize=auto;html=1;entryX=0;entryY=0.5;entryDx=0;entryDy=0;exitX=1;exitY=0.5;exitDx=0;exitDy=0;sketch=1;curveFitting=1;jiggle=2;strokeColor=#FFFFFF;" edge="1" parent="WIyWlLk6GJQsqaUBKTNV-1" source="UHBoEESBEvqK0pgLRjjo-10" target="UHBoEESBEvqK0pgLRjjo-11">
          <mxGeometry relative="1" as="geometry">
            <Array as="points">
              <mxPoint x="860" y="190" />
              <mxPoint x="860" y="260" />
              <mxPoint x="-10" y="260" />
              <mxPoint x="-10" y="390" />
            </Array>
          </mxGeometry>
        </mxCell>
        <mxCell id="UHBoEESBEvqK0pgLRjjo-10" value="&lt;font style=&quot;font-size: 18px; color: rgb(255, 181, 112);&quot;&gt;210-global-zsh-config&lt;/font&gt;" style="rounded=0;whiteSpace=wrap;html=1;fontStyle=1;fillColor=#dae8fc;strokeColor=#FFFFFF;sketch=1;curveFitting=1;jiggle=2;" vertex="1" parent="WIyWlLk6GJQsqaUBKTNV-1">
          <mxGeometry x="687" y="150" width="140" height="80" as="geometry" />
        </mxCell>
        <mxCell id="UHBoEESBEvqK0pgLRjjo-23" style="edgeStyle=orthogonalEdgeStyle;rounded=0;orthogonalLoop=1;jettySize=auto;html=1;entryX=0;entryY=0.5;entryDx=0;entryDy=0;sketch=1;curveFitting=1;jiggle=2;strokeColor=#FFFFFF;" edge="1" parent="WIyWlLk6GJQsqaUBKTNV-1" source="UHBoEESBEvqK0pgLRjjo-11" target="UHBoEESBEvqK0pgLRjjo-13">
          <mxGeometry relative="1" as="geometry" />
        </mxCell>
        <mxCell id="UHBoEESBEvqK0pgLRjjo-24" style="edgeStyle=orthogonalEdgeStyle;rounded=0;orthogonalLoop=1;jettySize=auto;html=1;entryX=0;entryY=0.5;entryDx=0;entryDy=0;sketch=1;curveFitting=1;jiggle=2;strokeColor=#FFFFFF;" edge="1" parent="WIyWlLk6GJQsqaUBKTNV-1" source="UHBoEESBEvqK0pgLRjjo-11" target="UHBoEESBEvqK0pgLRjjo-12">
          <mxGeometry relative="1" as="geometry" />
        </mxCell>
        <mxCell id="UHBoEESBEvqK0pgLRjjo-11" value="&lt;font style=&quot;font-size: 18px; color: rgb(51, 255, 255);&quot;&gt;220-laptop-bash-config&lt;/font&gt;" style="rounded=0;whiteSpace=wrap;html=1;fontStyle=1;fillColor=#dae8fc;strokeColor=#FFFFFF;sketch=1;curveFitting=1;jiggle=2;" vertex="1" parent="WIyWlLk6GJQsqaUBKTNV-1">
          <mxGeometry x="10" y="350" width="140" height="80" as="geometry" />
        </mxCell>
        <mxCell id="UHBoEESBEvqK0pgLRjjo-25" style="edgeStyle=orthogonalEdgeStyle;rounded=0;orthogonalLoop=1;jettySize=auto;html=1;sketch=1;curveFitting=1;jiggle=2;strokeColor=#FFFFFF;" edge="1" parent="WIyWlLk6GJQsqaUBKTNV-1" source="UHBoEESBEvqK0pgLRjjo-12" target="UHBoEESBEvqK0pgLRjjo-14">
          <mxGeometry relative="1" as="geometry" />
        </mxCell>
        <mxCell id="UHBoEESBEvqK0pgLRjjo-12" value="&lt;font style=&quot;font-size: 18px; color: rgb(255, 181, 112);&quot;&gt;350-global-bash-prompt&lt;/font&gt;" style="rounded=0;whiteSpace=wrap;html=1;fontStyle=1;fillColor=#dae8fc;strokeColor=#FFFFFF;sketch=1;curveFitting=1;jiggle=2;" vertex="1" parent="WIyWlLk6GJQsqaUBKTNV-1">
          <mxGeometry x="220" y="420" width="140" height="80" as="geometry" />
        </mxCell>
        <mxCell id="UHBoEESBEvqK0pgLRjjo-26" style="edgeStyle=orthogonalEdgeStyle;rounded=0;orthogonalLoop=1;jettySize=auto;html=1;entryX=0;entryY=0.5;entryDx=0;entryDy=0;sketch=1;curveFitting=1;jiggle=2;strokeColor=#FFFFFF;" edge="1" parent="WIyWlLk6GJQsqaUBKTNV-1" source="UHBoEESBEvqK0pgLRjjo-13" target="UHBoEESBEvqK0pgLRjjo-14">
          <mxGeometry relative="1" as="geometry">
            <mxPoint x="430" y="370" as="targetPoint" />
          </mxGeometry>
        </mxCell>
        <mxCell id="UHBoEESBEvqK0pgLRjjo-13" value="&lt;font style=&quot;font-size: 18px; color: rgb(255, 181, 112);&quot;&gt;350-global-zsh-prompt&lt;/font&gt;" style="rounded=0;whiteSpace=wrap;html=1;fontStyle=1;fillColor=#dae8fc;strokeColor=#FFFFFF;sketch=1;curveFitting=1;jiggle=2;" vertex="1" parent="WIyWlLk6GJQsqaUBKTNV-1">
          <mxGeometry x="220" y="280" width="140" height="80" as="geometry" />
        </mxCell>
        <mxCell id="UHBoEESBEvqK0pgLRjjo-27" style="edgeStyle=orthogonalEdgeStyle;rounded=0;orthogonalLoop=1;jettySize=auto;html=1;sketch=1;curveFitting=1;jiggle=2;strokeColor=#FFFFFF;" edge="1" parent="WIyWlLk6GJQsqaUBKTNV-1" source="UHBoEESBEvqK0pgLRjjo-14" target="UHBoEESBEvqK0pgLRjjo-6">
          <mxGeometry relative="1" as="geometry" />
        </mxCell>
        <mxCell id="UHBoEESBEvqK0pgLRjjo-14" value="&lt;font style=&quot;font-size: 18px; color: rgb(51, 255, 51);&quot;&gt;400-global-common-aliases&lt;/font&gt;" style="rounded=0;whiteSpace=wrap;html=1;fontStyle=1;fillColor=#dae8fc;strokeColor=#FFFFFF;sketch=1;curveFitting=1;jiggle=2;" vertex="1" parent="WIyWlLk6GJQsqaUBKTNV-1">
          <mxGeometry x="450" y="350" width="140" height="80" as="geometry" />
        </mxCell>
        <mxCell id="UHBoEESBEvqK0pgLRjjo-30" value="&lt;font style=&quot;font-size: 18px; color: rgb(255, 255, 255);&quot;&gt;&lt;b&gt;laptop?&lt;/b&gt;&lt;/font&gt;" style="rhombus;whiteSpace=wrap;html=1;fillColor=#f5f5f5;fontColor=#333333;strokeColor=#FFFFFF;sketch=1;curveFitting=1;jiggle=2;" vertex="1" parent="WIyWlLk6GJQsqaUBKTNV-1">
          <mxGeometry y="310" width="100" height="50" as="geometry" />
        </mxCell>
        <mxCell id="UHBoEESBEvqK0pgLRjjo-31" value="&lt;font style=&quot;font-size: 18px; color: rgb(255, 255, 255);&quot;&gt;&lt;b&gt;OR&lt;/b&gt;&lt;/font&gt;" style="rhombus;whiteSpace=wrap;html=1;fillColor=#f5f5f5;fontColor=#333333;strokeColor=#FFFFFF;sketch=1;curveFitting=1;jiggle=2;" vertex="1" parent="WIyWlLk6GJQsqaUBKTNV-1">
          <mxGeometry x="717" y="95" width="80" height="50" as="geometry" />
        </mxCell>
        <mxCell id="UHBoEESBEvqK0pgLRjjo-43" value="&lt;font style=&quot;font-size: 18px; color: rgb(255, 255, 255);&quot;&gt;&lt;b&gt;OR&lt;/b&gt;&lt;/font&gt;" style="rhombus;whiteSpace=wrap;html=1;fillColor=#f5f5f5;fontColor=#333333;strokeColor=#FFFFFF;sketch=1;curveFitting=1;jiggle=2;" vertex="1" parent="WIyWlLk6GJQsqaUBKTNV-1">
          <mxGeometry x="250" y="365" width="80" height="50" as="geometry" />
        </mxCell>
      </root>
    </mxGraphModel>
  </diagram>
</mxfile>
